<?xml version="1.0" encoding="UTF-8"?><svg version="1.1" width="157px" height="157px" viewBox="0 0 157.0 157.0" xmlns="http://www.w3.org/2000/svg" xmlns:xlink="http://www.w3.org/1999/xlink"><defs><clipPath id="i0"><path d="M26.0351563,0 C40.3710938,0 52.0703125,11.6992188 52.0703125,26.0351563 C52.0703125,40.3710938 40.3710938,52.0703125 26.0351563,52.0703125 C11.6992188,52.0703125 0,40.3710938 0,26.0351563 C0,11.6992187 11.6992188,0 26.0351563,0 Z"></path></clipPath><clipPath id="i1"><path d="M45.8456532,0.513621914 C56.6073719,-0.091846836 67.2909657,0.00580941404 78.0722157,0.00580941404 C88.8339344,0.00580941404 99.5175282,-0.091846836 110.298778,0.513621914 C122.798778,1.11909066 133.872997,3.95112191 143.033153,13.1112782 C152.173778,22.2519032 155.025341,33.3456532 155.630809,45.8456532 C156.236278,56.6073719 156.138622,67.2909657 156.138622,78.0722157 C156.138622,88.8534657 156.255809,99.5370594 155.630809,110.298778 C155.025341,122.798778 152.193309,133.872997 143.033153,143.033153 C133.892528,152.173778 122.798778,155.025341 110.298778,155.630809 C99.5370594,156.236278 88.8534657,156.138622 78.0722157,156.138622 C67.3104969,156.138622 56.6269032,156.236278 45.8456532,155.630809 C33.3456532,155.025341 22.2714344,152.193309 13.1112782,143.033153 C3.97065316,133.892528 1.11909066,122.798778 0.513621914,110.298778 C-0.091846836,99.5370594 0.00580941404,88.8339344 0.00580941404,78.0722157 C0.00580941404,67.3104969 -0.091846836,56.6269032 0.513621914,45.8456532 C1.11909066,33.3456532 3.95112191,22.2714344 13.1112782,13.1112782 C22.2519032,3.97065316 33.3456532,1.11909066 45.8456532,0.513621914 Z M78.0526844,38.0136219 C55.8847157,38.0136219 37.9940907,55.9042469 37.9940907,78.0722157 C37.9940907,100.240184 55.8847157,118.130809 78.0526844,118.130809 C100.220653,118.130809 118.111278,100.240184 118.111278,78.0722157 C118.111278,55.9042469 100.220653,38.0136219 78.0526844,38.0136219 Z M119.751903,27.0175282 C114.576122,27.0175282 110.396434,31.1972157 110.396434,36.3729969 C110.396434,41.5487782 114.576122,45.7284657 119.751903,45.7284657 C124.927684,45.7284657 129.087841,41.5683094 129.107372,36.3729969 C129.107372,31.1972157 124.927684,27.0175282 119.751903,27.0175282 Z"></path></clipPath></defs><g transform="translate(52.01752816403926 52.03705941403926)"><g clip-path="url(#i0)"><polygon points="0,0 52.0703125,0 52.0703125,52.0703125 0,52.0703125 0,0" stroke="none" fill="#FFFFFF"></polygon></g></g><g clip-path="url(#i1)"><polygon points="-2.60208521e-18,-8.67361738e-19 156.147338,-8.67361738e-19 156.147338,156.144431 -2.60208521e-18,156.144431 -2.60208521e-18,-8.67361738e-19" stroke="none" fill="#FFFFFF"></polygon></g></svg>