<svg xmlns="http://www.w3.org/2000/svg" width="37.764" height="37.764" viewBox="0 0 37.764 37.764">
    <path d="m1253.763 3284.7 10.758 10.758v15.2l-10.758 10.757h-15.2l-10.757-10.757v-15.2l10.757-10.758z" style="fill:#eaeaea;stroke:#ecc334;stroke-width:1.049px" transform="translate(-1227.281 -3284.175)"/>
    <path d="M1251.96 3301.166h-1.184v-2.788a4.116 4.116 0 1 0-8.23-.056v2.788h-1.13a1.04 1.04 0 0 0-1.022 1.06v7.7a1.041 1.041 0 0 0 1.022 1.059h10.544a1.04 1.04 0 0 0 1.022-1.059v-7.7a1.028 1.028 0 0 0-1.022-1zm-4.734 5.074v1.673a.118.118 0 0 1-.108.112h-.861a.118.118 0 0 1-.107-.112v-1.673a1.305 1.305 0 0 1-.7-1.171 1.238 1.238 0 1 1 2.475 0 1.306 1.306 0 0 1-.7 1.171zm1.99-5.074h-5.057v-2.732a2.53 2.53 0 1 1 5.057 0z" style="fill:#a3a3a3" transform="translate(-1227.281 -3284.175)"/>
</svg>
