<?xml version="1.0" encoding="UTF-8"?><svg version="1.1" width="94px" height="88px" viewBox="0 0 94.0 88.0" xmlns="http://www.w3.org/2000/svg" xmlns:xlink="http://www.w3.org/1999/xlink"><g transform="translate(1.5843000000004395 0.0003999999998995918)"><g transform="translate(19.66829999999936 20.473300000000112)"><path d="M42.712,0 L62.617,0 L56.313,35.359 L0,35.359" stroke="#000000" stroke-width="3.168" fill="none" stroke-linecap="round" stroke-linejoin="round"></path></g><g transform="translate(14.048300000000381 19.97330000000011)"><path d="M0,0.5 L48.332,0.5" stroke="#000000" stroke-width="3.168" fill="none" stroke-linecap="round" stroke-linejoin="round"></path></g><g transform="translate(29.542900000000365 64.38250000000016)"><path d="M11.688,0 C11.688,3.228 9.072,5.845 5.844,5.845 C2.616,5.845 0,3.228 0,0" stroke="#000000" stroke-width="3.168" fill="none" stroke-linecap="round" stroke-linejoin="round"></path></g><g transform="translate(54.5023999999994 64.38250000000016)"><path d="M11.689,0 C11.689,3.228 9.072,5.845 5.845,5.845 C2.617,5.845 0,3.228 0,0" stroke="#000000" stroke-width="3.168" fill="none" stroke-linecap="round" stroke-linejoin="round"></path></g><g transform="translate(20.789499999998945 62.87080000000014)"><path d="M0,0.5 L53.293,0.5" stroke="#000000" stroke-width="3.168" fill="none" stroke-linecap="round" stroke-linejoin="round"></path></g><g transform="translate(0.0 13.556300000000189)"><path d="M0,0 L11.623,0 L20.79,49.814" stroke="#000000" stroke-width="3.168" fill="none" stroke-linecap="round" stroke-linejoin="round"></path></g><g transform="translate(28.7572999999993 30.642300000000198)"><path d="M0,14.497 L0,0 C3.943,5.024 11.43,5.973 16.989,0 L26.984,3.444 C40.424,3.444 38.059,14.497 38.059,14.497 L0,14.497" stroke="#000000" stroke-width="3.168" fill="none" stroke-linecap="round" stroke-linejoin="round"></path></g></g></svg>