<svg xmlns="http://www.w3.org/2000/svg" width="171.554" height="26.659" viewBox="0 0 171.554 26.659">
    <g data-name="组 2578">
        <path d="m1283.526 3080.448 7.594 7.594v10.73l-7.594 7.594H1272.8l-7.594-7.594v-10.73l7.594-7.594z" style="fill:rgba(255,210,51,.75);stroke:#ecc334;stroke-width:.741px" transform="translate(-1159.925 -3080.078)"/>
        <path d="m1265.2 3085.631 5.184-5.183h-5.184zM1265.2 3101.182l5.184 5.184h-5.184zM1291.12 3085.631l-5.183-5.183h5.183z" style="stroke-linejoin:bevel;fill-rule:evenodd;fill:rgba(255,210,51,.75);stroke:#ecc334;stroke-width:.741px" transform="translate(-1159.925 -3080.078)"/>
        <g data-name="Group">
            <path data-name="Vector" d="m1247.734 3080.448 7.594 7.594v10.73l-7.594 7.594H1237l-7.594-7.594v-10.73l7.594-7.594z" style="fill:rgba(255,210,51,.75);stroke:#ecc334;stroke-width:.741px" transform="translate(-1159.925 -3080.078)"/>
        </g>
        <path data-name="Vector-26" d="m1229.41 3085.631 5.184-5.183h-5.184z" style="stroke-linejoin:bevel;fill-rule:evenodd;fill:rgba(255,210,51,.75);stroke:#ecc334;stroke-width:.741px" transform="translate(-1159.925 -3080.078)"/>
        <path data-name="Vector-28" d="m1255.328 3085.631-5.183-5.183h5.183z" style="stroke-linejoin:bevel;fill-rule:evenodd;fill:rgba(255,210,51,.75);stroke:#ecc334;stroke-width:.741px" transform="translate(-1159.925 -3080.078)"/>
        <g>
            <g data-name="Group">
                <path data-name="Vector" d="m1211.449 3080.448 7.594 7.594v10.73l-7.594 7.594h-10.731l-7.594-7.594v-10.73l7.594-7.594z" style="fill:rgba(255,210,51,.75);stroke:#ecc334;stroke-width:.741px" transform="translate(-1159.925 -3080.078)"/>
            </g>
            <path data-name="Vector-26" d="m1193.124 3085.631 5.184-5.183h-5.184z" style="stroke-linejoin:bevel;fill-rule:evenodd;fill:rgba(255,210,51,.75);stroke:#ecc334;stroke-width:.741px" transform="translate(-1159.925 -3080.078)"/>
        </g>
        <g>
            <g data-name="Group">
                <path data-name="Vector" d="m1178.619 3080.448 7.594 7.594v10.73l-7.594 7.594h-10.73l-7.594-7.594v-10.73l7.594-7.594z" style="fill:rgba(255,210,51,.75);stroke:#ecc334;stroke-width:.741px" transform="translate(-1159.925 -3080.078)"/>
            </g>
        </g>
        <g>
            <g data-name="Group">
                <path data-name="Vector" d="m1323.515 3080.448 7.594 7.594v10.73l-7.594 7.594h-10.731l-7.594-7.594v-10.73l7.594-7.594z" style="fill:rgba(255,210,51,.75);stroke:#ecc334;stroke-width:.741px" transform="translate(-1159.925 -3080.078)"/>
            </g>
            <path data-name="Vector-26" d="m1305.19 3085.631 5.184-5.183h-5.184z" style="stroke-linejoin:bevel;fill-rule:evenodd;fill:rgba(255,210,51,.75);stroke:#ecc334;stroke-width:.741px" transform="translate(-1159.925 -3080.078)"/>
            <path data-name="Vector-27" d="m1305.19 3101.182 5.184 5.184h-5.184z" style="stroke-linejoin:bevel;fill-rule:evenodd;fill:rgba(255,210,51,.75);stroke:#ecc334;stroke-width:.741px" transform="translate(-1159.925 -3080.078)"/>
            <path d="m1331.109 3101.182-5.184 5.184h5.184z" style="stroke-linejoin:bevel;fill-rule:evenodd;fill:rgba(255,210,51,.75);stroke:#ecc334;stroke-width:.741px" transform="translate(-1159.925 -3080.078)"/>
            <path data-name="Vector-28" d="m1331.109 3085.631-5.184-5.183h5.184z" style="stroke-linejoin:bevel;fill-rule:evenodd;fill:rgba(255,210,51,.75);stroke:#ecc334;stroke-width:.741px" transform="translate(-1159.925 -3080.078)"/>
        </g>
    </g>
</svg>
