<svg xmlns="http://www.w3.org/2000/svg" width="29.777" height="20.844" viewBox="0 0 29.777 20.844">
    <path d="M15.114 0c.705 0 2.964.016 5.329.1l.49.018.491.02a31.193 31.193 0 0 1 5.1.488 3.729 3.729 0 0 1 2.633 2.633 37.324 37.324 0 0 1 .622 7.029V10.564a37.1 37.1 0 0 1-.622 7.029 3.729 3.729 0 0 1-2.633 2.633 31.192 31.192 0 0 1-5.1.488l-.491.02-.49.018c-2.365.081-4.624.094-5.329.1h-.45c-.705 0-2.964-.016-5.329-.1l-.49-.018-.491-.02a31.193 31.193 0 0 1-5.1-.488A3.729 3.729 0 0 1 .623 17.59 37.1 37.1 0 0 1 0 10.561v-.276a37.1 37.1 0 0 1 .623-7.03A3.729 3.729 0 0 1 3.255.623a31.194 31.194 0 0 1 5.1-.488l.491-.02L9.334.1C11.7.017 13.959 0 14.664 0zm-3.206 5.957v8.932l7.736-4.466z" transform="translate(-.001 -.001)" style="fill:#fff"/>
</svg>
